<svg version="1.1" xmlns="http://www.w3.org/2000/svg" xmlns:xlink="http://www.w3.org/1999/xlink" width="56.24966" height="56.24998" viewBox="0,0,56.24966,56.24998"><g transform="translate(-291.87517,-151.87501)"><g fill="#eeeeee" stroke="#000000" stroke-width="0.5" stroke-miterlimit="10"><path d="M340.16286,184.60038c-0.37936,0.0306 -0.70602,0.27047 -0.85236,0.62098l-1.96332,4.73829c-0.14634,0.3505 -0.08166,0.75371 0.16333,1.04128l3.89268,4.55285c0.63971,0.74859 0.59887,1.86467 -0.10039,2.56394l-3.18492,3.18492c-0.69752,0.69752 -1.81535,0.7401 -2.56394,0.09865l-4.55285,-3.89268c-0.28583,-0.24499 -0.69077,-0.30967 -1.03954,-0.16333l-4.73992,1.96332c-0.3505,0.14634 -0.59038,0.47474 -0.62098,0.8541l-0.46451,5.96837c-0.07655,0.98346 -0.89657,1.74392 -1.8834,1.74392h-4.50516c-0.98683,0 -1.80686,-0.76057 -1.8834,-1.74392l-0.46614,-5.96837c-0.02896,-0.37947 -0.26884,-0.70776 -0.61934,-0.8541l-4.73992,-1.96332c-0.3505,-0.14634 -0.75208,-0.08166 -1.04128,0.16333l-4.55111,3.89268c-0.74859,0.64145 -1.86467,0.59887 -2.56394,-0.09865l-3.18492,-3.18492c-0.69752,-0.69927 -0.7401,-1.81535 -0.10039,-2.56394l3.89268,-4.55285c0.24499,-0.28757 0.30967,-0.69077 0.16333,-1.04128l-1.96332,-4.73829c-0.14297,-0.3505 -0.47474,-0.59038 -0.85073,-0.62098l-5.97175,-0.46451c-0.98335,-0.07666 -1.74218,-0.89831 -1.74218,-1.88514v-4.50342c0,-0.98683 0.75883,-1.80686 1.74218,-1.88514l5.97164,-0.46592c0.37609,-0.02896 0.70776,-0.26721 0.85073,-0.61934l1.96332,-4.73829c0.14634,-0.3505 0.08166,-0.75197 -0.16333,-1.03954l-3.89268,-4.55285c-0.63971,-0.75033 -0.59713,-1.86642 0.10039,-2.56394l3.18492,-3.18492c0.69927,-0.69752 1.81535,-0.74184 2.56394,-0.10039l4.55111,3.89268c0.28931,0.24674 0.69077,0.30967 1.04128,0.16507l4.73992,-1.96507c0.3505,-0.1446 0.59038,-0.47463 0.61934,-0.85236l0.46614,-5.96837c0.07655,-0.98509 0.89657,-1.74392 1.8834,-1.74392h4.50516c0.98673,0 1.80675,0.75883 1.88329,1.74359l0.46451,5.96837c0.0306,0.37598 0.27047,0.70776 0.62098,0.85236l4.73992,1.96507c0.34876,0.1446 0.75197,0.08166 1.03954,-0.16507l4.55285,-3.89268c0.74859,-0.64145 1.86642,-0.59713 2.56394,0.10039l3.18492,3.18492c0.69927,0.69752 0.7401,1.81361 0.10039,2.56394l-3.89268,4.55285c-0.24837,0.28757 -0.30967,0.68903 -0.16333,1.03954l1.96332,4.73829c0.14634,0.35225 0.473,0.59038 0.85236,0.61934l5.97001,0.46614c0.98335,0.07829 1.74218,0.89831 1.74218,1.88514v4.50516c0,0.98509 -0.75883,1.80686 -1.74218,1.8834zM326.66251,186.66236c1.77963,-1.78127 2.75961,-4.14617 2.75961,-6.66416c0,-2.51625 -0.97997,-4.88289 -2.75961,-6.66078c-1.77963,-1.78138 -4.14453,-2.75961 -6.66252,-2.75961c-2.51636,0 -4.88289,0.97834 -6.66252,2.75961c-1.77963,1.77789 -2.75961,4.14453 -2.75961,6.66078c0,2.51799 0.97997,4.88289 2.75961,6.66416c1.77963,1.77789 4.14627,2.75787 6.66252,2.75787c2.51799,0 4.88289,-0.97997 6.66252,-2.75787z"/></g></g></svg>