<svg version="1.1" xmlns="http://www.w3.org/2000/svg" xmlns:xlink="http://www.w3.org/1999/xlink" width="655.90464" height="143.74808" viewBox="0,0,655.90464,143.74808"><defs><linearGradient x1="20.03457" y1="28.9373" x2="94.74806" y2="28.9373" gradientUnits="userSpaceOnUse" id="color-1"><stop offset="0" stop-color="#ee35ff"/><stop offset="1" stop-color="#00bfff"/></linearGradient><linearGradient x1="53.13649" y1="28.9373" x2="53.13649" y2="45.19008" gradientUnits="userSpaceOnUse" id="color-2"><stop offset="0" stop-color="#ffffff" stop-opacity="0.32157"/><stop offset="1" stop-color="#ffffff" stop-opacity="0"/></linearGradient><linearGradient x1="2.04138" y1="37.06369" x2="104.2316" y2="37.06369" gradientUnits="userSpaceOnUse" id="color-3"><stop offset="0" stop-color="#89209f"/><stop offset="1" stop-color="#301ba8"/></linearGradient><linearGradient x1="64.57837" y1="17.648" x2="64.57837" y2="12.49045" gradientUnits="userSpaceOnUse" id="color-4"><stop offset="0" stop-color="#ffffff" stop-opacity="0"/><stop offset="1" stop-color="#ffffff"/></linearGradient><linearGradient x1="109.70283" y1="15.06922" x2="19.45392" y2="15.06922" gradientUnits="userSpaceOnUse" id="color-5"><stop offset="0" stop-color="#89209f"/><stop offset="1" stop-color="#301ba8"/></linearGradient><linearGradient x1="2.04138" y1="28.93734" x2="112.74131" y2="28.93734" gradientUnits="userSpaceOnUse" id="color-6"><stop offset="0" stop-color="#89209f"/><stop offset="1" stop-color="#301ba8"/></linearGradient><linearGradient x1="536.15997" y1="30.28557" x2="615.54651" y2="30.28557" gradientUnits="userSpaceOnUse" id="color-7"><stop offset="0" stop-color="#ee35ff"/><stop offset="1" stop-color="#00bfff"/></linearGradient><linearGradient x1="571.33228" y1="30.28557" x2="571.33228" y2="48.85891" gradientUnits="userSpaceOnUse" id="color-8"><stop offset="0" stop-color="#ffffff" stop-opacity="0.32157"/><stop offset="1" stop-color="#ffffff" stop-opacity="0"/></linearGradient><linearGradient x1="517.04138" y1="39.57224" x2="625.62321" y2="39.57224" gradientUnits="userSpaceOnUse" id="color-9"><stop offset="0" stop-color="#89209f"/><stop offset="1" stop-color="#301ba8"/></linearGradient><linearGradient x1="583.48982" y1="17.38439" x2="583.48982" y2="11.49045" gradientUnits="userSpaceOnUse" id="color-10"><stop offset="0" stop-color="#ffffff" stop-opacity="0"/><stop offset="1" stop-color="#ffffff"/></linearGradient><linearGradient x1="631.43664" y1="14.43742" x2="535.54302" y2="14.43742" gradientUnits="userSpaceOnUse" id="color-11"><stop offset="0" stop-color="#89209f"/><stop offset="1" stop-color="#301ba8"/></linearGradient><linearGradient x1="517.04138" y1="30.28562" x2="634.66518" y2="30.28562" gradientUnits="userSpaceOnUse" id="color-12"><stop offset="0" stop-color="#89209f"/><stop offset="1" stop-color="#301ba8"/></linearGradient></defs><g transform="translate(12.83255,13.79912)"><g stroke-miterlimit="10"><path d="M-1.85272,128.94895v-131.73242h643.92481v131.73242z" fill="#66cfff" stroke="#000000" stroke-width="2" stroke-linecap="butt" stroke-linejoin="miter"/><text transform="translate(113.54357,48.994) scale(1.44352,1.44352)" font-size="40" xml:space="preserve" fill="#ffffff" stroke="none" stroke-width="1" stroke-linecap="butt" stroke-linejoin="miter" font-family="&quot;Tajawal-ExtraBold&quot;, Archivo Black" font-weight="normal" text-anchor="start"><tspan x="0" dy="0">Dalifos Chat 3.4</tspan></text><text transform="translate(-12.58255,61.38138) scale(0.5,0.5)" font-size="40" xml:space="preserve" fill="#ffffff" stroke="none" stroke-width="1" stroke-linecap="butt" stroke-linejoin="miter" font-family="&quot;Tajawal-ExtraBold&quot;, Archivo Black" font-weight="normal" text-anchor="start"><tspan x="0" dy="0"> </tspan></text><path d="M112.74129,12.68453l-16.94997,32.50554h-93.74993l16.94997,-32.50552v-0.00002z" fill="#e693ff" stroke="#0b6088" stroke-width="0" stroke-linecap="butt" stroke-linejoin="miter"/><path d="M113.95864,15.00399l-16.94997,32.50554h-93.74993l16.94997,-32.50552v-0.00002z" fill-opacity="0.32157" fill="#5d00ff" stroke="#0b6088" stroke-width="0" stroke-linecap="butt" stroke-linejoin="miter"/><path d="M20.03457,42.80539v-0.00001h-14.46298l14.46298,-27.73614v0.00001h89.17652l-14.46298,27.73614z" fill="url(#color-1)" stroke="#0b6088" stroke-width="0" stroke-linecap="butt" stroke-linejoin="miter"/><path d="M2.04138,45.19008l8.42767,-16.25277h93.76254l-8.2656,16.25277z" fill="url(#color-2)" stroke="url(#color-3)" stroke-width="0" stroke-linecap="round" stroke-linejoin="round"/><path d="M112.9846,12.49045l-3.28177,5.15756h-93.25719l3.00829,-5.15756z" fill="url(#color-4)" stroke="url(#color-5)" stroke-width="0" stroke-linecap="round" stroke-linejoin="round"/><path d="M112.74131,12.68454l-16.94998,32.5055h-93.74995l16.94998,-32.5055v0z" fill="none" stroke="url(#color-6)" stroke-width="1.5" stroke-linecap="round" stroke-linejoin="round"/><path d="M634.66514,11.71224l-18.01013,37.14666h-99.61363l18.01012,-37.14664v-0.00003z" fill="#e693ff" stroke="#0b6088" stroke-width="0" stroke-linecap="butt" stroke-linejoin="miter"/><path d="M635.95863,14.36287l-18.01013,37.14666h-99.61363l18.01012,-37.14664v-0.00002z" fill-opacity="0.32157" fill="#5d00ff" stroke="#0b6088" stroke-width="0" stroke-linecap="butt" stroke-linejoin="miter"/><path d="M536.15997,46.13374v-0.00001h-15.36758l15.36758,-31.69629v0.00001h94.75417l-15.36758,31.69629z" fill="url(#color-7)" stroke="#0b6088" stroke-width="0" stroke-linecap="butt" stroke-linejoin="miter"/><path d="M517.04138,48.85891l8.95479,-18.57333h99.62703l-8.78259,18.57333z" fill="url(#color-8)" stroke="url(#color-9)" stroke-width="0" stroke-linecap="round" stroke-linejoin="round"/><path d="M634.92368,11.49045l-3.48704,5.89396h-99.09008l3.19646,-5.89395z" fill="url(#color-10)" stroke="url(#color-11)" stroke-width="0" stroke-linecap="round" stroke-linejoin="round"/><path d="M634.66518,11.71226l-18.01014,37.14661h-99.61365l18.01014,-37.14661v0z" fill="none" stroke="url(#color-12)" stroke-width="1.5" stroke-linecap="round" stroke-linejoin="round"/></g></g></svg>