<svg version="1.1" xmlns="http://www.w3.org/2000/svg" xmlns:xlink="http://www.w3.org/1999/xlink" width="64.5" height="64.5" viewBox="0,0,64.5,64.5"><defs><linearGradient x1="287.75" y1="180" x2="352.25" y2="180" gradientUnits="userSpaceOnUse" id="color-1"><stop offset="0" stop-color="#0d57ff"/><stop offset="1" stop-color="#72c4ff"/></linearGradient></defs><g transform="translate(-287.75,-147.75)"><g stroke-miterlimit="10"><path d="M287.75,180c0,-17.81118 14.43881,-32.25 32.25,-32.25c17.81119,0 32.25,14.43882 32.25,32.25c0,17.81118 -14.43881,32.25 -32.25,32.25c-17.81119,0 -32.25,-14.43882 -32.25,-32.25z" fill="url(#color-1)" stroke="none" stroke-width="0" stroke-linecap="butt"/><path d="M327.51412,163.7142l0.13161,18.38108c-1.20678,10.36271 -14.91065,10.18281 -16.2098,0.14355l-0.18875,-18.38058c0.57594,-9.45334 14.78425,-10.96601 16.26694,-0.14405z" fill="#ffffff" stroke="none" stroke-width="0" stroke-linecap="butt"/><path d="M308.11123,179.7267c0,0.33334 0,0.66666 0,1" fill="none" stroke="none" stroke-width="0.5" stroke-linecap="round"/><path d="M331.94686,178.75962c0,3.06381 0.23286,7.95248 -1.46039,11.2137c-1.99311,3.83874 -6.20187,5.82528 -9.9642,5.82528c-3.99492,0 -9.07936,-1.72299 -11.35106,-5.67613c-1.6853,-2.9327 -1.11807,-7.7386 -1.11807,-10.57944c0,-1.77921 -0.16553,4.02175 2.46389,8.58171c2.28228,3.95793 7.15321,6.65893 10.07033,6.65358c2.59517,-0.00476 6.06722,-2.59207 7.96997,-6.20756c2.73218,-5.19151 3.38953,-11.78389 3.38953,-9.81112z" fill="#ffffff" stroke="#ffffff" stroke-width="2.5" stroke-linecap="butt"/><path d="M320.19585,205.91751v-8.74798" fill="none" stroke="#ffffff" stroke-width="2.5" stroke-linecap="round"/><path d="M319.02075,196.38613v9.40081" fill="none" stroke="#ffffff" stroke-width="2.5" stroke-linecap="round"/><path d="M311.18674,204.74241h16.71255" fill="none" stroke="#ffffff" stroke-width="2.5" stroke-linecap="round"/><path d="M310.40334,206.04808h18.14879" fill="none" stroke="#ffffff" stroke-width="2.5" stroke-linecap="round"/></g></g></svg>